<?xml version='1.0' encoding='UTF-8'?>
<!DOCTYPE svg PUBLIC "-//W3C//DTD SVG 1.1//EN" "http://www.w3.org/Graphics/SVG/1.1/DTD/svg11.dtd">
<!-- Generated by graphviz version 13.1.2 (20250808.2320)
 -->
<!-- Pages: 1 -->
<svg xmlns="http://www.w3.org/2000/svg" xmlns:xlink="http://www.w3.org/1999/xlink" width="404pt" height="598pt" viewBox="0.00 0.00 404.00 598.00">
  <style>
    @import url("https://fonts.googleapis.com/css?family=Roboto:400,400i,700,700i");
    </style>
  <g id="graph0" class="graph" transform="scale(1 1) rotate(0) translate(4 593.5)">
    <polygon fill="#eeeeee" stroke="none" points="-4,4 -4,-593.5 399.5,-593.5 399.5,4 -4,4"/>
    <!-- User -->
    <g id="node1" class="table-hover">
      <title>User</title>
      <g id="a_node1">
        <a xlink:href="http://User_details.html" xlink:title="&lt;TABLE&gt;">
          <polygon fill="#3f51b5" stroke="none" points="112.5,-562.25 112.5,-585.5 328.5,-585.5 328.5,-562.25 112.5,-562.25"/>
          <polygon fill="none" stroke="black" points="112.5,-562.25 112.5,-585.5 328.5,-585.5 328.5,-562.25 112.5,-562.25"/>
          <text xml:space="preserve" text-anchor="start" x="207" y="-571.1" font-family="Roboto" font-size="12.00" fill="white">User</text>
          <polygon fill="#bbdefb" stroke="none" points="112.5,-539 112.5,-562.25 183,-562.25 183,-539 112.5,-539"/>
          <polygon fill="none" stroke="black" points="112.5,-539 112.5,-562.25 183,-562.25 183,-539 112.5,-539"/>
          <text xml:space="preserve" text-anchor="start" x="142.5" y="-547.85" font-family="Roboto" font-size="12.00">id</text>
          <polygon fill="#bbdefb" stroke="none" points="183,-539 183,-562.25 328.5,-562.25 328.5,-539 183,-539"/>
          <polygon fill="none" stroke="black" points="183,-539 183,-562.25 328.5,-562.25 328.5,-539 183,-539"/>
          <text xml:space="preserve" text-anchor="start" x="201" y="-547.85" font-family="Roboto" font-size="12.00">INTEGER (PK,Index)</text>
          <polygon fill="#bbdefb" stroke="none" points="112.5,-515.75 112.5,-539 183,-539 183,-515.75 112.5,-515.75"/>
          <polygon fill="none" stroke="black" points="112.5,-515.75 112.5,-539 183,-539 183,-515.75 112.5,-515.75"/>
          <text xml:space="preserve" text-anchor="start" x="118.88" y="-524.6" font-family="Roboto" font-size="12.00">username</text>
          <polygon fill="#bbdefb" stroke="none" points="183,-515.75 183,-539 328.5,-539 328.5,-515.75 183,-515.75"/>
          <polygon fill="none" stroke="black" points="183,-515.75 183,-539 328.5,-539 328.5,-515.75 183,-515.75"/>
          <text xml:space="preserve" text-anchor="start" x="186" y="-524.6" font-family="Roboto" font-size="12.00">VARCHAR (Unique,Index)</text>
          <polygon fill="#bbdefb" stroke="none" points="112.5,-492.5 112.5,-515.75 183,-515.75 183,-492.5 112.5,-492.5"/>
          <polygon fill="none" stroke="black" points="112.5,-492.5 112.5,-515.75 183,-515.75 183,-492.5 112.5,-492.5"/>
          <text xml:space="preserve" text-anchor="start" x="120" y="-501.35" font-family="Roboto" font-size="12.00">password</text>
          <polygon fill="#bbdefb" stroke="none" points="183,-492.5 183,-515.75 328.5,-515.75 328.5,-492.5 183,-492.5"/>
          <polygon fill="none" stroke="black" points="183,-492.5 183,-515.75 328.5,-515.75 328.5,-492.5 183,-492.5"/>
          <text xml:space="preserve" text-anchor="start" x="223.88" y="-501.35" font-family="Roboto" font-size="12.00">VARCHAR ()</text>
          <polygon fill="#bbdefb" stroke="none" points="112.5,-469.25 112.5,-492.5 183,-492.5 183,-469.25 112.5,-469.25"/>
          <polygon fill="none" stroke="black" points="112.5,-469.25 112.5,-492.5 183,-492.5 183,-469.25 112.5,-469.25"/>
          <text xml:space="preserve" text-anchor="start" x="124.12" y="-478.1" font-family="Roboto" font-size="12.00">is_active</text>
          <polygon fill="#bbdefb" stroke="none" points="183,-469.25 183,-492.5 328.5,-492.5 328.5,-469.25 183,-469.25"/>
          <polygon fill="none" stroke="black" points="183,-469.25 183,-492.5 328.5,-492.5 328.5,-469.25 183,-469.25"/>
          <text xml:space="preserve" text-anchor="start" x="223.12" y="-478.1" font-family="Roboto" font-size="12.00">BOOLEAN ()</text>
          <polygon fill="#bbdefb" stroke="none" points="112.5,-446 112.5,-469.25 183,-469.25 183,-446 112.5,-446"/>
          <polygon fill="none" stroke="black" points="112.5,-446 112.5,-469.25 183,-469.25 183,-446 112.5,-446"/>
          <text xml:space="preserve" text-anchor="start" x="118.12" y="-454.85" font-family="Roboto" font-size="12.00">created_at</text>
          <polygon fill="#bbdefb" stroke="none" points="183,-446 183,-469.25 328.5,-469.25 328.5,-446 183,-446"/>
          <polygon fill="none" stroke="black" points="183,-446 183,-469.25 328.5,-469.25 328.5,-446 183,-446"/>
          <text xml:space="preserve" text-anchor="start" x="222" y="-454.85" font-family="Roboto" font-size="12.00">DATETIME ()</text>
          <polygon fill="#bbdefb" stroke="none" points="112.5,-422.75 112.5,-446 183,-446 183,-422.75 112.5,-422.75"/>
          <polygon fill="none" stroke="black" points="112.5,-422.75 112.5,-446 183,-446 183,-422.75 112.5,-422.75"/>
          <text xml:space="preserve" text-anchor="start" x="115.5" y="-431.6" font-family="Roboto" font-size="12.00">updated_at</text>
          <polygon fill="#bbdefb" stroke="none" points="183,-422.75 183,-446 328.5,-446 328.5,-422.75 183,-422.75"/>
          <polygon fill="none" stroke="black" points="183,-422.75 183,-446 328.5,-446 328.5,-422.75 183,-422.75"/>
          <text xml:space="preserve" text-anchor="start" x="222" y="-431.6" font-family="Roboto" font-size="12.00">DATETIME ()</text>
        </a>
      </g>
    </g>
    <!-- RefreshToken -->
    <g id="node2" class="table-hover">
      <title>RefreshToken</title>
      <g id="a_node2">
        <a xlink:href="http://RefreshToken_details.html" xlink:title="&lt;TABLE&gt;">
          <polygon fill="#3f51b5" stroke="none" points="8,-341.25 8,-364.5 185,-364.5 185,-341.25 8,-341.25"/>
          <polygon fill="none" stroke="black" points="8,-341.25 8,-364.5 185,-364.5 185,-341.25 8,-341.25"/>
          <text xml:space="preserve" text-anchor="start" x="57.5" y="-350.1" font-family="Roboto" font-size="12.00" fill="white">RefreshToken</text>
          <polygon fill="#bbdefb" stroke="none" points="8,-318 8,-341.25 74,-341.25 74,-318 8,-318"/>
          <polygon fill="none" stroke="black" points="8,-318 8,-341.25 74,-341.25 74,-318 8,-318"/>
          <text xml:space="preserve" text-anchor="start" x="35.75" y="-326.85" font-family="Roboto" font-size="12.00">id</text>
          <polygon fill="#bbdefb" stroke="none" points="74,-318 74,-341.25 185,-341.25 185,-318 74,-318"/>
          <polygon fill="none" stroke="black" points="74,-318 74,-341.25 185,-341.25 185,-318 74,-318"/>
          <text xml:space="preserve" text-anchor="start" x="92" y="-326.85" font-family="Roboto" font-size="12.00">INTEGER (PK)</text>
          <polygon fill="#bbdefb" stroke="none" points="8,-294.75 8,-318 74,-318 74,-294.75 8,-294.75"/>
          <polygon fill="none" stroke="black" points="8,-294.75 8,-318 74,-318 74,-294.75 8,-294.75"/>
          <text xml:space="preserve" text-anchor="start" x="20.38" y="-303.6" font-family="Roboto" font-size="12.00">user_id</text>
          <polygon fill="#bbdefb" stroke="none" points="74,-294.75 74,-318 185,-318 185,-294.75 74,-294.75"/>
          <polygon fill="none" stroke="black" points="74,-294.75 74,-318 185,-318 185,-294.75 74,-294.75"/>
          <text xml:space="preserve" text-anchor="start" x="99.5" y="-303.6" font-family="Roboto" font-size="12.00">INTEGER ()</text>
          <polygon fill="#bbdefb" stroke="none" points="8,-271.5 8,-294.75 74,-294.75 74,-271.5 8,-271.5"/>
          <polygon fill="none" stroke="black" points="8,-271.5 8,-294.75 74,-294.75 74,-271.5 8,-271.5"/>
          <text xml:space="preserve" text-anchor="start" x="24.5" y="-280.35" font-family="Roboto" font-size="12.00">token</text>
          <polygon fill="#bbdefb" stroke="none" points="74,-271.5 74,-294.75 185,-294.75 185,-271.5 74,-271.5"/>
          <polygon fill="none" stroke="black" points="74,-271.5 74,-294.75 185,-294.75 185,-271.5 74,-271.5"/>
          <text xml:space="preserve" text-anchor="start" x="77" y="-280.35" font-family="Roboto" font-size="12.00">VARCHAR (Unique)</text>
          <polygon fill="#bbdefb" stroke="none" points="8,-248.25 8,-271.5 74,-271.5 74,-248.25 8,-248.25"/>
          <polygon fill="none" stroke="black" points="8,-248.25 8,-271.5 74,-271.5 74,-248.25 8,-248.25"/>
          <text xml:space="preserve" text-anchor="start" x="12.5" y="-257.1" font-family="Roboto" font-size="12.00">expires_at</text>
          <polygon fill="#bbdefb" stroke="none" points="74,-248.25 74,-271.5 185,-271.5 185,-248.25 74,-248.25"/>
          <polygon fill="none" stroke="black" points="74,-248.25 74,-271.5 185,-271.5 185,-248.25 74,-248.25"/>
          <text xml:space="preserve" text-anchor="start" x="95.75" y="-257.1" font-family="Roboto" font-size="12.00">DATETIME ()</text>
          <polygon fill="#bbdefb" stroke="none" points="8,-225 8,-248.25 74,-248.25 74,-225 8,-225"/>
          <polygon fill="none" stroke="black" points="8,-225 8,-248.25 74,-248.25 74,-225 8,-225"/>
          <text xml:space="preserve" text-anchor="start" x="11.38" y="-233.85" font-family="Roboto" font-size="12.00">created_at</text>
          <polygon fill="#bbdefb" stroke="none" points="74,-225 74,-248.25 185,-248.25 185,-225 74,-225"/>
          <polygon fill="none" stroke="black" points="74,-225 74,-248.25 185,-248.25 185,-225 74,-225"/>
          <text xml:space="preserve" text-anchor="start" x="95.75" y="-233.85" font-family="Roboto" font-size="12.00">DATETIME ()</text>
          <polygon fill="#bbdefb" stroke="none" points="8,-201.75 8,-225 74,-225 74,-201.75 8,-201.75"/>
          <polygon fill="none" stroke="black" points="8,-201.75 8,-225 74,-225 74,-201.75 8,-201.75"/>
          <text xml:space="preserve" text-anchor="start" x="11" y="-210.6" font-family="Roboto" font-size="12.00">is_revoked</text>
          <polygon fill="#bbdefb" stroke="none" points="74,-201.75 74,-225 185,-225 185,-201.75 74,-201.75"/>
          <polygon fill="none" stroke="black" points="74,-201.75 74,-225 185,-225 185,-201.75 74,-201.75"/>
          <text xml:space="preserve" text-anchor="start" x="96.88" y="-210.6" font-family="Roboto" font-size="12.00">BOOLEAN ()</text>
        </a>
      </g>
    </g>
    <!-- User&#45;&gt;RefreshToken -->
    <g id="edge1" class="edge-hover edge-from-None edge-to-None">
      <title>User-&gt;RefreshToken</title>
      <g id="a_edge1">
        <a xlink:title="Relation between User and RefreshToken">
          <path fill="none" stroke="#1e88e5" stroke-dasharray="5,2" d="M117.73,-419C113.61,-413.14 109.89,-407.05 106.75,-400.75 103.4,-394.03 100.8,-386.82 98.81,-379.4"/>
          <polygon fill="#1e88e5" stroke="#1e88e5" points="102.27,-378.86 96.64,-369.89 95.45,-380.42 102.27,-378.86"/>
        </a>
      </g>
      <text xml:space="preserve" text-anchor="middle" x="141.62" y="-391.25" font-family="Roboto" font-size="10.00">refresh_tokens</text>
    </g>
    <!-- Thread -->
    <g id="node3" class="table-hover">
      <title>Thread</title>
      <g id="a_node3">
        <a xlink:href="http://Thread_details.html" xlink:title="&lt;TABLE&gt;">
          <polygon fill="#3f51b5" stroke="none" points="219.5,-341.25 219.5,-364.5 387.5,-364.5 387.5,-341.25 219.5,-341.25"/>
          <polygon fill="none" stroke="black" points="219.5,-341.25 219.5,-364.5 387.5,-364.5 387.5,-341.25 219.5,-341.25"/>
          <text xml:space="preserve" text-anchor="start" x="283.62" y="-350.1" font-family="Roboto" font-size="12.00" fill="white">Thread</text>
          <polygon fill="#bbdefb" stroke="none" points="219.5,-318 219.5,-341.25 290,-341.25 290,-318 219.5,-318"/>
          <polygon fill="none" stroke="black" points="219.5,-318 219.5,-341.25 290,-341.25 290,-318 219.5,-318"/>
          <text xml:space="preserve" text-anchor="start" x="249.5" y="-326.85" font-family="Roboto" font-size="12.00">id</text>
          <polygon fill="#bbdefb" stroke="none" points="290,-318 290,-341.25 387.5,-341.25 387.5,-318 290,-318"/>
          <polygon fill="none" stroke="black" points="290,-318 290,-341.25 387.5,-341.25 387.5,-318 290,-318"/>
          <text xml:space="preserve" text-anchor="start" x="301.25" y="-326.85" font-family="Roboto" font-size="12.00">INTEGER (PK)</text>
          <polygon fill="#bbdefb" stroke="none" points="219.5,-294.75 219.5,-318 290,-318 290,-294.75 219.5,-294.75"/>
          <polygon fill="none" stroke="black" points="219.5,-294.75 219.5,-318 290,-318 290,-294.75 219.5,-294.75"/>
          <text xml:space="preserve" text-anchor="start" x="234.12" y="-303.6" font-family="Roboto" font-size="12.00">user_id</text>
          <polygon fill="#bbdefb" stroke="none" points="290,-294.75 290,-318 387.5,-318 387.5,-294.75 290,-294.75"/>
          <polygon fill="none" stroke="black" points="290,-294.75 290,-318 387.5,-318 387.5,-294.75 290,-294.75"/>
          <text xml:space="preserve" text-anchor="start" x="293" y="-303.6" font-family="Roboto" font-size="12.00">INTEGER (Index)</text>
          <polygon fill="#bbdefb" stroke="none" points="219.5,-271.5 219.5,-294.75 290,-294.75 290,-271.5 219.5,-271.5"/>
          <polygon fill="none" stroke="black" points="219.5,-271.5 219.5,-294.75 290,-294.75 290,-271.5 219.5,-271.5"/>
          <text xml:space="preserve" text-anchor="start" x="243.88" y="-280.35" font-family="Roboto" font-size="12.00">title</text>
          <polygon fill="#bbdefb" stroke="none" points="290,-271.5 290,-294.75 387.5,-294.75 387.5,-271.5 290,-271.5"/>
          <polygon fill="none" stroke="black" points="290,-271.5 290,-294.75 387.5,-294.75 387.5,-271.5 290,-271.5"/>
          <text xml:space="preserve" text-anchor="start" x="293" y="-280.35" font-family="Roboto" font-size="12.00">VARCHAR(255) ()</text>
          <polygon fill="#bbdefb" stroke="none" points="219.5,-248.25 219.5,-271.5 290,-271.5 290,-248.25 219.5,-248.25"/>
          <polygon fill="none" stroke="black" points="219.5,-248.25 219.5,-271.5 290,-271.5 290,-248.25 219.5,-248.25"/>
          <text xml:space="preserve" text-anchor="start" x="225.5" y="-257.1" font-family="Roboto" font-size="12.00">llm_model</text>
          <polygon fill="#bbdefb" stroke="none" points="290,-248.25 290,-271.5 387.5,-271.5 387.5,-248.25 290,-248.25"/>
          <polygon fill="none" stroke="black" points="290,-248.25 290,-271.5 387.5,-271.5 387.5,-248.25 290,-248.25"/>
          <text xml:space="preserve" text-anchor="start" x="293" y="-257.1" font-family="Roboto" font-size="12.00">VARCHAR(255) ()</text>
          <polygon fill="#bbdefb" stroke="none" points="219.5,-225 219.5,-248.25 290,-248.25 290,-225 219.5,-225"/>
          <polygon fill="none" stroke="black" points="219.5,-225 219.5,-248.25 290,-248.25 290,-225 219.5,-225"/>
          <text xml:space="preserve" text-anchor="start" x="225.12" y="-233.85" font-family="Roboto" font-size="12.00">created_at</text>
          <polygon fill="#bbdefb" stroke="none" points="290,-225 290,-248.25 387.5,-248.25 387.5,-225 290,-225"/>
          <polygon fill="none" stroke="black" points="290,-225 290,-248.25 387.5,-248.25 387.5,-225 290,-225"/>
          <text xml:space="preserve" text-anchor="start" x="305" y="-233.85" font-family="Roboto" font-size="12.00">DATETIME ()</text>
          <polygon fill="#bbdefb" stroke="none" points="219.5,-201.75 219.5,-225 290,-225 290,-201.75 219.5,-201.75"/>
          <polygon fill="none" stroke="black" points="219.5,-201.75 219.5,-225 290,-225 290,-201.75 219.5,-201.75"/>
          <text xml:space="preserve" text-anchor="start" x="222.5" y="-210.6" font-family="Roboto" font-size="12.00">updated_at</text>
          <polygon fill="#bbdefb" stroke="none" points="290,-201.75 290,-225 387.5,-225 387.5,-201.75 290,-201.75"/>
          <polygon fill="none" stroke="black" points="290,-201.75 290,-225 387.5,-225 387.5,-201.75 290,-201.75"/>
          <text xml:space="preserve" text-anchor="start" x="305" y="-210.6" font-family="Roboto" font-size="12.00">DATETIME ()</text>
        </a>
      </g>
    </g>
    <!-- User&#45;&gt;Thread -->
    <g id="edge2" class="edge-hover edge-from-None edge-to-None">
      <title>User-&gt;Thread</title>
      <g id="a_edge2">
        <a xlink:title="Relation between User and Thread">
          <path fill="none" stroke="#1e88e5" stroke-dasharray="5,2" d="M235.15,-418.77C238.01,-407.76 241.35,-396.75 245.25,-386.5 246.22,-383.96 247.24,-381.41 248.31,-378.85"/>
          <polygon fill="#1e88e5" stroke="#1e88e5" points="251.5,-380.28 252.35,-369.72 245.1,-377.45 251.5,-380.28"/>
        </a>
      </g>
      <text xml:space="preserve" text-anchor="middle" x="262.88" y="-391.25" font-family="Roboto" font-size="10.00">threads</text>
    </g>
    <!-- RefreshToken&#45;&gt;User -->
    <g id="edge6" class="edge-hover edge-from-None edge-to-None">
      <title>RefreshToken-&gt;User</title>
      <g id="a_edge6">
        <a xlink:title="Relation between RefreshToken and User">
          <path fill="none" stroke="#1e88e5" stroke-dasharray="5,2" d="M165.33,-368.23C169.3,-374.28 173.07,-380.4 176.5,-386.5 180.44,-393.5 184.16,-400.93 187.64,-408.51"/>
          <polygon fill="#1e88e5" stroke="#1e88e5" points="184.38,-409.79 191.63,-417.52 190.78,-406.96 184.38,-409.79"/>
        </a>
      </g>
      <text xml:space="preserve" text-anchor="middle" x="193.31" y="-391.25" font-family="Roboto" font-size="10.00">user</text>
    </g>
    <!-- Thread&#45;&gt;User -->
    <g id="edge3" class="edge-hover edge-from-None edge-to-None">
      <title>Thread-&gt;User</title>
      <g id="a_edge3">
        <a xlink:title="Relation between Thread and User">
          <path fill="none" stroke="#1e88e5" stroke-dasharray="5,2" d="M290.44,-368.22C287.7,-379.32 284.41,-390.43 280.5,-400.75 279.49,-403.4 278.42,-406.07 277.29,-408.74"/>
          <polygon fill="#1e88e5" stroke="#1e88e5" points="274.2,-407.08 273.31,-417.64 280.59,-409.94 274.2,-407.08"/>
        </a>
      </g>
      <text xml:space="preserve" text-anchor="middle" x="295.22" y="-391.25" font-family="Roboto" font-size="10.00">user</text>
    </g>
    <!-- Message -->
    <g id="node4" class="table-hover">
      <title>Message</title>
      <g id="a_node4">
        <a xlink:href="http://Message_details.html" xlink:title="&lt;TABLE&gt;">
          <polygon fill="#3f51b5" stroke="none" points="221.12,-120.25 221.12,-143.5 383.88,-143.5 383.88,-120.25 221.12,-120.25"/>
          <polygon fill="none" stroke="black" points="221.12,-120.25 221.12,-143.5 383.88,-143.5 383.88,-120.25 221.12,-120.25"/>
          <text xml:space="preserve" text-anchor="start" x="277" y="-129.1" font-family="Roboto" font-size="12.00" fill="white">Message</text>
          <polygon fill="#bbdefb" stroke="none" points="221.12,-97 221.12,-120.25 286.38,-120.25 286.38,-97 221.12,-97"/>
          <polygon fill="none" stroke="black" points="221.12,-97 221.12,-120.25 286.38,-120.25 286.38,-97 221.12,-97"/>
          <text xml:space="preserve" text-anchor="start" x="248.5" y="-105.85" font-family="Roboto" font-size="12.00">id</text>
          <polygon fill="#bbdefb" stroke="none" points="286.38,-97 286.38,-120.25 383.88,-120.25 383.88,-97 286.38,-97"/>
          <polygon fill="none" stroke="black" points="286.38,-97 286.38,-120.25 383.88,-120.25 383.88,-97 286.38,-97"/>
          <text xml:space="preserve" text-anchor="start" x="297.62" y="-105.85" font-family="Roboto" font-size="12.00">INTEGER (PK)</text>
          <polygon fill="#bbdefb" stroke="none" points="221.12,-73.75 221.12,-97 286.38,-97 286.38,-73.75 221.12,-73.75"/>
          <polygon fill="none" stroke="black" points="221.12,-73.75 221.12,-97 286.38,-97 286.38,-73.75 221.12,-73.75"/>
          <text xml:space="preserve" text-anchor="start" x="227.12" y="-82.6" font-family="Roboto" font-size="12.00">thread_id</text>
          <polygon fill="#bbdefb" stroke="none" points="286.38,-73.75 286.38,-97 383.88,-97 383.88,-73.75 286.38,-73.75"/>
          <polygon fill="none" stroke="black" points="286.38,-73.75 286.38,-97 383.88,-97 383.88,-73.75 286.38,-73.75"/>
          <text xml:space="preserve" text-anchor="start" x="289.38" y="-82.6" font-family="Roboto" font-size="12.00">INTEGER (Index)</text>
          <polygon fill="#bbdefb" stroke="none" points="221.12,-50.5 221.12,-73.75 286.38,-73.75 286.38,-50.5 221.12,-50.5"/>
          <polygon fill="none" stroke="black" points="221.12,-50.5 221.12,-73.75 286.38,-73.75 286.38,-50.5 221.12,-50.5"/>
          <text xml:space="preserve" text-anchor="start" x="242.88" y="-59.35" font-family="Roboto" font-size="12.00">role</text>
          <polygon fill="#bbdefb" stroke="none" points="286.38,-50.5 286.38,-73.75 383.88,-73.75 383.88,-50.5 286.38,-50.5"/>
          <polygon fill="none" stroke="black" points="286.38,-50.5 286.38,-73.75 383.88,-73.75 383.88,-50.5 286.38,-50.5"/>
          <text xml:space="preserve" text-anchor="start" x="296.12" y="-59.35" font-family="Roboto" font-size="12.00">VARCHAR(9) ()</text>
          <polygon fill="#bbdefb" stroke="none" points="221.12,-27.25 221.12,-50.5 286.38,-50.5 286.38,-27.25 221.12,-27.25"/>
          <polygon fill="none" stroke="black" points="221.12,-27.25 221.12,-50.5 286.38,-50.5 286.38,-27.25 221.12,-27.25"/>
          <text xml:space="preserve" text-anchor="start" x="231.62" y="-36.1" font-family="Roboto" font-size="12.00">content</text>
          <polygon fill="#bbdefb" stroke="none" points="286.38,-27.25 286.38,-50.5 383.88,-50.5 383.88,-27.25 286.38,-27.25"/>
          <polygon fill="none" stroke="black" points="286.38,-27.25 286.38,-50.5 383.88,-50.5 383.88,-27.25 286.38,-27.25"/>
          <text xml:space="preserve" text-anchor="start" x="316.38" y="-36.1" font-family="Roboto" font-size="12.00">TEXT ()</text>
          <polygon fill="#bbdefb" stroke="none" points="221.12,-4 221.12,-27.25 286.38,-27.25 286.38,-4 221.12,-4"/>
          <polygon fill="none" stroke="black" points="221.12,-4 221.12,-27.25 286.38,-27.25 286.38,-4 221.12,-4"/>
          <text xml:space="preserve" text-anchor="start" x="224.12" y="-12.85" font-family="Roboto" font-size="12.00">created_at</text>
          <polygon fill="#bbdefb" stroke="none" points="286.38,-4 286.38,-27.25 383.88,-27.25 383.88,-4 286.38,-4"/>
          <polygon fill="none" stroke="black" points="286.38,-4 286.38,-27.25 383.88,-27.25 383.88,-4 286.38,-4"/>
          <text xml:space="preserve" text-anchor="start" x="301.38" y="-12.85" font-family="Roboto" font-size="12.00">DATETIME ()</text>
        </a>
      </g>
    </g>
    <!-- Thread&#45;&gt;Message -->
    <g id="edge4" class="edge-hover edge-from-None edge-to-None">
      <title>Thread-&gt;Message</title>
      <g id="a_edge4">
        <a xlink:title="Relation between Thread and Message">
          <path fill="none" stroke="#1e88e5" stroke-dasharray="5,2" d="M269.67,-197.91C268.12,-187.09 267.9,-176.09 269.75,-165.5 270.16,-163.18 270.62,-160.84 271.12,-158.49"/>
          <polygon fill="#1e88e5" stroke="#1e88e5" points="274.49,-159.48 273.45,-148.93 267.68,-157.82 274.49,-159.48"/>
        </a>
      </g>
      <text xml:space="preserve" text-anchor="middle" x="292.62" y="-170.25" font-family="Roboto" font-size="10.00">messages</text>
    </g>
    <!-- Message&#45;&gt;Thread -->
    <g id="edge5" class="edge-hover edge-from-None edge-to-None">
      <title>Message-&gt;Thread</title>
      <g id="a_edge5">
        <a xlink:title="Relation between Message and Thread">
          <path fill="none" stroke="#1e88e5" stroke-dasharray="5,2" d="M313.84,-147.46C314.51,-153.55 315.08,-159.63 315.5,-165.5 315.98,-172.28 316.14,-179.28 316.04,-186.32"/>
          <polygon fill="#1e88e5" stroke="#1e88e5" points="312.54,-186.16 315.71,-196.26 319.54,-186.38 312.54,-186.16"/>
        </a>
      </g>
      <text xml:space="preserve" text-anchor="middle" x="331.41" y="-170.25" font-family="Roboto" font-size="10.00">thread</text>
    </g>
  </g>
</svg>
